<svg xmlns="http://www.w3.org/2000/svg" viewBox="0 0 42 42"><defs><style>.cls-1{fill:#bbb;opacity:0.8;}.cls-2{fill:#fff;}</style></defs><title>btn-lupe</title><g id="Слой_2" data-name="Слой 2"><g id="Desktop"><g id="Gallery"><rect class="cls-1" width="42" height="42" rx="6.3" ry="6.3"/><path class="cls-2" d="M36.1,33.3l-6-6a2.63,2.63,0,0,0-1.62-.75,13.21,13.21,0,1,0-2.89,2.69A2.65,2.65,0,0,0,26.32,31l6,6A2.65,2.65,0,0,0,36.1,33.3Zm-18-6.22a8.83,8.83,0,1,1,8.83-8.83A8.84,8.84,0,0,1,18.12,27.08Zm6.07-8.83A1.77,1.77,0,0,1,22.42,20H14a1.77,1.77,0,0,1,0-3.53h8.39A1.77,1.77,0,0,1,24.19,18.25Zm-6,6a1.77,1.77,0,0,1-1.77-1.77V14.06a1.77,1.77,0,0,1,3.53,0v8.39A1.77,1.77,0,0,1,18.23,24.21Z"/></g></g></g></svg>