<svg xmlns="http://www.w3.org/2000/svg" viewBox="0 0 184.64 27.03"><defs><style>.cls-1{fill:#fff;}</style></defs><title>inst-logo</title><g id="Слой_2" data-name="Слой 2"><g id="Desktop"><g id="Footer"><path class="cls-1" d="M41.64,13.92h3.5V13.1c0-1.73-.82-2.57-2.76-2.57a3.8,3.8,0,0,0-2.52.88,1.66,1.66,0,0,1-1,.35,1,1,0,0,1-.77-.35,1.1,1.1,0,0,1-.31-.82c0-.6.56-1.13,1.23-1.52a6.48,6.48,0,0,1,3.35-.79c3.54,0,5.4,1.55,5.4,4.54v7.1a2.15,2.15,0,0,1-.2,1.2,1.26,1.26,0,0,1-1.13.61,1.28,1.28,0,0,1-1-.38,1.36,1.36,0,0,1-.3-.95,4.37,4.37,0,0,1-3.54,1.36,4.6,4.6,0,0,1-3.55-1.2,4,4,0,0,1-1.05-2.82C37.08,15.53,38.65,13.92,41.64,13.92Zm.51,5.64a3.15,3.15,0,0,0,2.41-.75,2.52,2.52,0,0,0,.58-2v-1H42c-1.56,0-2.35.68-2.35,1.9S40.47,19.56,42.15,19.56Z"/><path class="cls-1" d="M57.88,8.27a3.89,3.89,0,0,1,2.31.61,1.48,1.48,0,0,1,.79,1.2,1.38,1.38,0,0,1-.39,1,1.33,1.33,0,0,1-.91.36,2.07,2.07,0,0,1-1-.35,2.88,2.88,0,0,0-1.43-.39,2.7,2.7,0,0,0-2.69,3v6.29a2.28,2.28,0,0,1-.2,1.18,1.34,1.34,0,0,1-2.26,0,2.28,2.28,0,0,1-.2-1.18V10.15a2.07,2.07,0,0,1,.23-1.26,1.36,1.36,0,0,1,2.17,0,1.62,1.62,0,0,1,.23,1A4.31,4.31,0,0,1,57.88,8.27Z"/><path class="cls-1" d="M64,10.46h-.61a1.68,1.68,0,0,1-.92-.16A.93.93,0,0,1,62,9.44a.93.93,0,0,1,.47-.86,1.68,1.68,0,0,1,.92-.16H64V6.36a2.27,2.27,0,0,1,.2-1.18,1.34,1.34,0,0,1,2.26,0,2.29,2.29,0,0,1,.19,1.18V8.43h1.43a1.67,1.67,0,0,1,.92.16.93.93,0,0,1,.47.86.93.93,0,0,1-.47.86,1.67,1.67,0,0,1-.92.16H66.63v7.38c0,.91.36,1.5,1.34,1.52a2.11,2.11,0,0,1,1,.18,1,1,0,0,1,.53.94,1,1,0,0,1-.53.92,2.33,2.33,0,0,1-1.12.21h-.26A3.37,3.37,0,0,1,64,18Z"/><path class="cls-1" d="M77.61,8.27a4.87,4.87,0,0,1,2.89.83c.69.44,1.29.91,1.29,1.59a1.27,1.27,0,0,1-.38.87,1.2,1.2,0,0,1-.82.34,1.6,1.6,0,0,1-1.05-.51,2.8,2.8,0,0,0-1.92-.73,2.84,2.84,0,0,0-2.41,1.13A5,5,0,0,0,74.41,15a5,5,0,0,0,.79,3.21,2.81,2.81,0,0,0,2.41,1.14,2.87,2.87,0,0,0,1.92-.74,1.66,1.66,0,0,1,1.05-.51,1.22,1.22,0,0,1,.82.35,1.25,1.25,0,0,1,.38.87c0,.66-.62,1.16-1.29,1.59a5,5,0,0,1-2.89.83c-3,0-5.85-1.81-5.85-6.75S74.62,8.27,77.61,8.27Z"/><path class="cls-1" d="M85.76,9.83a5.75,5.75,0,0,1,7.88,0c1.27,1.33,1.55,3,1.55,5.19s-.27,3.86-1.55,5.19a5.75,5.75,0,0,1-7.88,0c-1.29-1.33-1.55-3-1.55-5.19S84.48,11.16,85.76,9.83Zm2,8.79a2.83,2.83,0,0,0,3.85,0c.79-.79.91-2.16.91-3.6s-.12-2.8-.91-3.6a2.83,2.83,0,0,0-3.85,0c-.79.81-.91,2.16-.91,3.6S87,17.83,87.78,18.62Z"/><path class="cls-1" d="M106.69,10.13a2.27,2.27,0,0,1,.2-1.18,1.34,1.34,0,0,1,2.26,0,2.27,2.27,0,0,1,.2,1.18V19.9a2.08,2.08,0,0,1-.23,1.26,1.36,1.36,0,0,1-2.17,0,1.52,1.52,0,0,1-.23-.87,4.71,4.71,0,0,1-3.47,1.44,4.57,4.57,0,0,1-3.25-1.2,4.84,4.84,0,0,1-1.33-3.72V10.13A2.29,2.29,0,0,1,98.85,9a1.34,1.34,0,0,1,2.26,0,2.27,2.27,0,0,1,.2,1.18v6.33c0,2.05,1.17,2.91,2.65,2.91a2.6,2.6,0,0,0,2.73-2.91Z"/><path class="cls-1" d="M113.56,25.23V10.13a2.08,2.08,0,0,1,.23-1.26,1.36,1.36,0,0,1,2.17,0,1.58,1.58,0,0,1,.23.94,4.07,4.07,0,0,1,3.45-1.51,4.56,4.56,0,0,1,3.22,1.17c1.27,1.3,1.46,3.41,1.46,5.59s-.18,4.26-1.46,5.56a4.5,4.5,0,0,1-3.2,1.18,4.09,4.09,0,0,1-3.46-1.5v5a2.27,2.27,0,0,1-.2,1.18,1.34,1.34,0,0,1-2.26,0A2.27,2.27,0,0,1,113.56,25.23Zm5.38-14.57c-2.41,0-2.74,2-2.74,4.35s.34,4.37,2.74,4.37,2.73-2,2.73-4.37S121.33,10.65,118.94,10.65Z"/><path class="cls-1" d="M132.84,8.27c3.45,0,5.5,2.51,5.58,6a1.56,1.56,0,0,1-.37,1.18,1.52,1.52,0,0,1-1.17.34h-7c0,2.25,1.18,3.72,3.38,3.72a4,4,0,0,0,2.54-.83,1.75,1.75,0,0,1,1.08-.48A1.17,1.17,0,0,1,138,19.32c0,.61-.68,1.18-1.33,1.6a6.33,6.33,0,0,1-3.45.85c-3.29,0-5.94-1.73-5.94-6.75C127.25,10.68,129.47,8.27,132.84,8.27Zm2.6,3.87a2.88,2.88,0,0,0-5.23,0,4.1,4.1,0,0,0-.34,1.79h5.93A4.5,4.5,0,0,0,135.44,12.15Z"/><path class="cls-1" d="M143.42,21.69a1.91,1.91,0,0,1-1.9-1.9,1.9,1.9,0,0,1,3.8,0A1.91,1.91,0,0,1,143.42,21.69Z"/><path class="cls-1" d="M149.15,25.23V10.13a2.08,2.08,0,0,1,.23-1.26,1.36,1.36,0,0,1,2.17,0,1.56,1.56,0,0,1,.23.94,4.08,4.08,0,0,1,3.45-1.51,4.57,4.57,0,0,1,3.22,1.17c1.27,1.3,1.46,3.41,1.46,5.59s-.18,4.26-1.46,5.56a4.5,4.5,0,0,1-3.2,1.18,4.09,4.09,0,0,1-3.46-1.5v5a2.27,2.27,0,0,1-.2,1.18,1.34,1.34,0,0,1-2.26,0A2.27,2.27,0,0,1,149.15,25.23Zm5.38-14.57c-2.41,0-2.74,2-2.74,4.35s.34,4.37,2.74,4.37,2.73-2,2.73-4.37S156.92,10.65,154.53,10.65Z"/><path class="cls-1" d="M169.51,8.27a3.89,3.89,0,0,1,2.31.61,1.48,1.48,0,0,1,.79,1.2,1.38,1.38,0,0,1-.39,1,1.34,1.34,0,0,1-.91.36,2.07,2.07,0,0,1-1-.35,2.88,2.88,0,0,0-1.43-.39,2.7,2.7,0,0,0-2.69,3v6.29a2.28,2.28,0,0,1-.2,1.18,1.34,1.34,0,0,1-2.26,0,2.28,2.28,0,0,1-.2-1.18V10.15a2.08,2.08,0,0,1,.23-1.26,1.36,1.36,0,0,1,2.17,0,1.6,1.6,0,0,1,.23,1A4.31,4.31,0,0,1,169.51,8.27Z"/><path class="cls-1" d="M175.21,9.83a5.75,5.75,0,0,1,7.88,0c1.27,1.33,1.55,3,1.55,5.19s-.27,3.86-1.55,5.19a5.75,5.75,0,0,1-7.88,0c-1.29-1.33-1.55-3-1.55-5.19S173.93,11.16,175.21,9.83Zm2,8.79a2.83,2.83,0,0,0,3.85,0c.79-.79.91-2.16.91-3.6s-.12-2.8-.91-3.6a2.83,2.83,0,0,0-3.85,0c-.79.81-.91,2.16-.91,3.6S176.44,17.83,177.23,18.62Z"/><path class="cls-1" d="M23.82,6a6.37,6.37,0,0,0-1.94-4.1A6.66,6.66,0,0,0,17.47.14,86.73,86.73,0,0,0,5.6.27,6.06,6.06,0,0,0,.4,4.93C-.17,7-.06,16.39.28,18.41A6.08,6.08,0,0,0,5.1,23.65c1.89.49,11.2.43,13.29.09a6.09,6.09,0,0,0,5.26-4.8C24.2,16.84,24,7.91,23.82,6ZM21.61,18a4.07,4.07,0,0,1-3.82,3.63c-1.94.21-10.59.33-12.38-.17a3.94,3.94,0,0,1-3-3.39A80.32,80.32,0,0,1,2.41,6a4.06,4.06,0,0,1,3.8-3.61A84.66,84.66,0,0,1,18,2.4a4.06,4.06,0,0,1,3.62,3.83A86.16,86.16,0,0,1,21.61,18ZM12,5.84A6.16,6.16,0,1,0,18.16,12,6.15,6.15,0,0,0,12,5.84ZM12,16a4,4,0,1,1,4-4A4,4,0,0,1,12,16ZM19.84,5.61a1.44,1.44,0,1,1-1.43-1.45A1.43,1.43,0,0,1,19.84,5.61Z"/></g></g></g></svg>